{"title":"Life Of Pi 2012 DVDSCR XViD TiCKLE TiME","uid":8037058,"size":762618195,"categoryP":"video","categoryS":"movies","magnet":"?xt=urn:btih:e53c8c50f0e4776554e02763f65e5995399045e7&amp;dn=Life+Of+Pi+2012+DVDSCR+XViD+TiCKLE+TiME&amp;tr=udp%3A%2F%2Ftracker.openbittorrent.com%3A80&amp;tr=udp%3A%2F%2Fopen.demonii.com%3A1337&amp;tr=udp%3A%2F%2Ftracker.coppersurfer.tk%3A6969&amp;tr=udp%3A%2F%2Fexodus.desync.com%3A6969","seeders":4,"leechers":0,"uploader":"juggs99","files":3,"time":1358538529,"description":"Life Of Pi 2012 DVDSCR XViD TiCKLE TiME\n\n\n\n\n\nFormat                                   : AVI\nFormat/Info                              : Audio Video Interleave\nFile size                                : 726 MiB\nDuration                                 : 2h 3mn\nOverall bit rate                         : 824 Kbps\nWriting application                      : VirtualDubMod 1.5.10.2 (build 2540/release)\nWriting library                          : VirtualDubMod build 2540/release\n\nVideo\nID                                       : 0\nFormat                                   : MPEG-4 Visual\nFormat profile                           : Advanced Simple@L5\nFormat settings, BVOP                    : 2\nFormat settings, QPel                    : No\nFormat settings, GMC                     : No warppoints\nFormat settings, Matrix                  : Default (H.263)\nMuxing mode                              : Packed bitstream\nCodec ID                                 : XVID\nCodec ID/Hint                            : XviD\nDuration                                 : 2h 3mn\nBit rate                                 : 687 Kbps\nWidth                                    : 624 pixels\nHeight                                   : 342 pixels\nDisplay aspect ratio                     : 1.85:1\nFrame rate                               : 23.976 fps\nColor space                              : YUV\nChroma subsampling                       : 4:2:0\nBit depth                                : 8 bits\nScan type                                : Progressive\nCompression mode                         : Lossy\nBits/(Pixel*Frame)                       : 0.134\nStream size                              : 605 MiB (83%)\nWriting library                          : XviD 64\n\nAudio\nID                                       : 1\nFormat                                   : MPEG Audio\nFormat version                           : Version 1\nFormat profile                           : Layer 3\nCodec ID                                 : 55\nCodec ID/Hint                            : MP3\nDuration                                 : 2h 3mn\nBit rate mode                            : Constant\nBit rate                                 : 128 Kbps\nChannel(s)                               : 2 channels\nSampling rate                            : 48.0 KHz\nCompression mode                         : Lossy\nStream size                              : 113 MiB (16%)\nAlignment                                : Split accross interleaves\nInterleave, duration                     : 42 ms (1.00 video frame)\nInterleave, preload duration             : 500 ms\n\n\n\n","torrent":{"xt":"urn:btih:e53c8c50f0e4776554e02763f65e5995399045e7","amp;dn":"Life+Of+Pi+2012+DVDSCR+XViD+TiCKLE+TiME","amp;tr":["udp%3A%2F%2Ftracker.openbittorrent.com%3A80","udp%3A%2F%2Fopen.demonii.com%3A1337","udp%3A%2F%2Ftracker.coppersurfer.tk%3A6969","udp%3A%2F%2Fexodus.desync.com%3A6969"],"infoHash":"e53c8c50f0e4776554e02763f65e5995399045e7","infoHashBuffer":{"type":"Buffer","data":[229,60,140,80,240,228,119,101,84,224,39,99,246,94,89,149,57,144,69,231]},"announce":[],"urlList":[]}}